<?xml version="1.0" encoding="UTF-8"?>
<svg xmlns="http://www.w3.org/2000/svg" version="1.1" viewBox="0 0 612 792">
  <defs>
    <style>
      .cls-1 {
        fill: #7f3f98;
      }

      .cls-2 {
        fill: #fff;
      }

      .cls-3 {
        fill: #ff0;
      }
    </style>
  </defs>
  <!-- Generator: Adobe Illustrator 28.7.1, SVG Export Plug-In . SVG Version: 1.2.0 Build 142)  -->
  <g>
    <g id="Layer_1">
      <rect class="cls-2" x="191.1" y="325.7" width="203.3" height="135.6"/>
      <rect class="cls-2" x="137.5" y="208" width="203.3" height="135.6"/>
      <rect class="cls-2" x="126" y="415.5" width="203.3" height="135.6"/>
      <rect class="cls-2" x="239.2" y="163.3" width="157.5" height="85.2"/>
      <rect class="cls-3" x="355" y="248.5" width="64.7" height="31.6"/>
      <rect class="cls-3" x="337.5" y="483.3" width="87.4" height="31.6"/>
      <path class="cls-1" d="M575.5,451.9l-32.5-227.5c-2.5-17.6-14.3-32.6-30.8-39.3l-213.2-85.6c-16.5-6.6-35.4-4-49.4,7.1L68.9,248.5c-14,11-21.1,28.7-18.6,46.3l32.5,227.5c2.5,17.7,14.3,32.6,30.8,39.3l213.2,85.6c16.5,6.6,35.4,4,49.4-7l180.8-141.9c14-11,21.1-28.7,18.6-46.3h0ZM330.6,458.2c-10.6,16.7-22.9,32.1-40.1,42.6-19.6,12-41,16.1-63.8,13.4-4.2-.5-5.5-3-6.2-6.6-2.8-14.7-6-29.4-8.4-44.1-4.9-30-7.1-60.2-7.5-91.3.3-32.1,2.6-64.8,11.7-96.7,6.5-22.9,15.8-44.4,33-61.3,25-24.5,55-33.4,89-24,21.9,6,35.4,22.3,44,42.7,1.8,4.3-.2,6.5-4.9,7.5-6.6,1.4-13.4,2.8-19.7,5.2-4.1,1.6-6.6,1.1-9.8-1.7-17.1-15.3-44.4-14.2-59,2.5-10.3,11.7-11.1,25.6-7.9,40.1,3.7,16.6,13.2,30,24.4,42.4,13.9,15.3,30.1,27.8,46.6,40,7.2,5.4,14.5,10.7,21.4,16.5,8.1,6.9,11.3,16.3,11.1,26.8-.1,7.1-4.3,10.6-11.4,10-2.6-.2-5.2-1-7.8-1.8-8.5-2.5-12.6-1.1-17.1,6.6-6,10.4-11.2,21.2-17.6,31.3h0ZM316.2,255.8c-.3-1.3,0-2.8,0-4.2,1.5.2,3.3,0,4.6.7,6.3,3.2,9.8,10.8,8.3,17.7-1.6,7.6-7.4,12.8-14.8,13.4-7.8.6-15-3.7-17.3-10.7-.5-1.6-.3-3.4-.5-6,2.2.8,3.6,1.1,4.9,1.7,4,1.9,7.8,1.4,11.2-1.4,3.5-2.9,4.7-6.6,3.6-11.2h0ZM415.5,508c-.8,2.9-2.4,4.1-5.3,4.1l-30.5,2.1h-27.9c-1.3,0-3.6-.7-3.8-1.4-.3-1.3.2-3.3,1.1-4.4,10.2-11.4,21.8-20.5,37.3-23.5,7-1.4,13.9-1,20.4,2.5,7.8,4.2,11.1,12.2,8.7,20.7h0ZM404,261.4c-13,2.9-26.2,4.7-39.6,2.7-1.5-.2-3-.5-4.3-1.1-1.1-.5-2.8-1.8-2.7-2.5.2-1.2,1.3-2.7,2.4-3.3,17.4-8.7,35.4-9.4,53.8-3.4.9.3,1.6,1.1,2.4,1.6.1.6.2,1.3.3,1.9-4.1,1.4-8.1,3.1-12.3,4h0Z"/>
    </g>
  </g>
</svg>